<svg width="69" height="68" viewBox="0 0 69 68" fill="none" xmlns="http://www.w3.org/2000/svg">
<circle cx="34.5" cy="33.8967" r="32.8767" stroke="url(#paint0_linear_74:603)" stroke-width="2.04"/>
<path d="M34.3008 35.2003V41.4582H26.4785V35.2003H34.3008ZM34.3008 33.6359H26.4785C26.0636 33.6359 25.6657 33.8007 25.3723 34.0941C25.0789 34.3875 24.9141 34.7854 24.9141 35.2003V41.4582C24.9141 41.8731 25.0789 42.271 25.3723 42.5644C25.6657 42.8578 26.0636 43.0226 26.4785 43.0226H34.3008C34.7158 43.0226 35.1137 42.8578 35.4071 42.5644C35.7005 42.271 35.8653 41.8731 35.8653 41.4582V35.2003C35.8653 34.7854 35.7005 34.3875 35.4071 34.0941C35.1137 33.8007 34.7158 33.6359 34.3008 33.6359Z" fill="#252160"/>
<path d="M42.9055 26.5958V30.507H35.0831V26.5958H42.9055ZM42.9055 25.0314H35.0831C34.6682 25.0314 34.2703 25.1962 33.9769 25.4896C33.6835 25.783 33.5187 26.1809 33.5187 26.5958V30.507C33.5187 30.9219 33.6835 31.3198 33.9769 31.6132C34.2703 31.9066 34.6682 32.0715 35.0831 32.0715H42.9055C43.3204 32.0715 43.7183 31.9066 44.0117 31.6132C44.3051 31.3198 44.4699 30.9219 44.4699 30.507V26.5958C44.4699 26.1809 44.3051 25.783 44.0117 25.4896C43.7183 25.1962 43.3204 25.0314 42.9055 25.0314Z" fill="#252160"/>
<path d="M42.9054 35.2003V39.1115H38.9943V35.2003H42.9054ZM42.9054 33.6359H38.9943C38.5794 33.6359 38.1814 33.8007 37.888 34.0941C37.5946 34.3875 37.4298 34.7854 37.4298 35.2003V39.1115C37.4298 39.5264 37.5946 39.9243 37.888 40.2177C38.1814 40.5111 38.5794 40.6759 38.9943 40.6759H42.9054C43.3203 40.6759 43.7183 40.5111 44.0117 40.2177C44.3051 39.9243 44.4699 39.5264 44.4699 39.1115V35.2003C44.4699 34.7854 44.3051 34.3875 44.0117 34.0941C43.7183 33.8007 43.3203 33.6359 42.9054 33.6359Z" fill="#252160"/>
<path d="M30.3897 26.5958V30.507H26.4785V26.5958H30.3897ZM30.3897 25.0314H26.4785C26.0636 25.0314 25.6657 25.1962 25.3723 25.4896C25.0789 25.783 24.9141 26.1809 24.9141 26.5958V30.507C24.9141 30.9219 25.0789 31.3198 25.3723 31.6132C25.6657 31.9066 26.0636 32.0715 26.4785 32.0715H30.3897C30.8046 32.0715 31.2025 31.9066 31.4959 31.6132C31.7893 31.3198 31.9541 30.9219 31.9541 30.507V26.5958C31.9541 26.1809 31.7893 25.783 31.4959 25.4896C31.2025 25.1962 30.8046 25.0314 30.3897 25.0314Z" fill="#252160"/>
<defs>
<linearGradient id="paint0_linear_74:603" x1="16.1958" y1="2.71173" x2="61.6174" y2="67.7934" gradientUnits="userSpaceOnUse">
<stop stop-color="#26E9CF"/>
<stop offset="1" stop-color="#25CDE1"/>
</linearGradient>
</defs>
</svg>
