<svg width="333" height="69" viewBox="0 0 333 69" fill="none" xmlns="http://www.w3.org/2000/svg">
<g filter="url(#filter0_d_1:379)">
<path d="M132.841 11.9788H126.012V42.7899H144.917V36.7527H132.841V11.9788Z" fill="#252160"/>
<path d="M145.569 32.3393C145.569 38.918 149.983 43.2898 156.645 43.2898C163.266 43.2898 167.68 38.918 167.68 32.3393C167.68 25.7606 163.266 21.3471 156.645 21.3471C149.983 21.3471 145.569 25.7606 145.569 32.3393ZM152.023 32.2976C152.023 29.1749 153.855 27.0931 156.645 27.0931C159.393 27.0931 161.226 29.1749 161.226 32.2976C161.226 35.4621 159.393 37.5439 156.645 37.5439C153.855 37.5439 152.023 35.4621 152.023 32.2976Z" fill="#252160"/>
<path d="M168.712 32.0061C168.712 38.2931 172.793 42.54 178.58 42.54C181.371 42.54 183.786 41.5408 184.993 39.917V42.7899C184.993 45.6629 183.203 47.5781 180.038 47.5781C177.206 47.5781 175.249 46.2458 175.124 43.8725H168.628C169.211 49.5768 173.625 53.4072 179.663 53.4072C186.784 53.4072 191.281 48.7857 191.281 41.4575V21.9716H185.493L185.16 24.095C183.994 22.3879 181.537 21.2638 178.706 21.2638C172.876 21.2638 168.712 25.6356 168.712 32.0061ZM175.208 31.8395C175.208 28.8415 177.206 26.843 179.746 26.843C182.703 26.843 184.868 28.8 184.868 31.8395C184.868 34.879 182.745 36.9608 179.788 36.9608C177.248 36.9608 175.208 34.879 175.208 31.8395Z" fill="#252160"/>
<path d="M193.15 32.3393C193.15 38.918 197.564 43.2898 204.227 43.2898C210.848 43.2898 215.261 38.918 215.261 32.3393C215.261 25.7606 210.848 21.3471 204.227 21.3471C197.564 21.3471 193.15 25.7606 193.15 32.3393ZM199.604 32.2976C199.604 29.1749 201.436 27.0931 204.227 27.0931C206.974 27.0931 208.806 29.1749 208.806 32.2976C208.806 35.4621 206.974 37.5439 204.227 37.5439C201.436 37.5439 199.604 35.4621 199.604 32.2976Z" fill="#252160"/>
<path d="M220.79 18.7239C222.788 18.7239 224.412 17.1001 224.412 15.0599C224.412 13.0197 222.788 11.4375 220.79 11.4375C218.75 11.4375 217.126 13.0197 217.126 15.0599C217.126 17.1001 218.75 18.7239 220.79 18.7239ZM217.541 42.79H223.997V21.9716H217.541V42.79Z" fill="#252160"/>
<path d="M227.754 52.7826H234.084V40.708C235.29 42.2902 238.039 43.3727 240.912 43.3727C247.116 43.3727 250.864 38.6262 250.698 32.0475C250.53 25.344 246.658 21.3052 240.87 21.3052C237.914 21.3052 235.124 22.596 233.958 24.5114L233.624 21.9715H227.754V52.7826ZM234.207 32.3806C234.207 29.2579 236.289 27.1761 239.288 27.1761C242.327 27.1761 244.243 29.2995 244.243 32.3806C244.243 35.4618 242.327 37.5852 239.288 37.5852C236.289 37.5852 234.207 35.5034 234.207 32.3806Z" fill="#252160"/>
<path d="M251.381 36.2112C251.546 40.4165 254.879 43.331 260.125 43.331C265.164 43.331 268.662 40.6663 268.662 36.3778C268.662 33.2967 266.83 31.2564 263.414 30.4236L259.71 29.5076C258.377 29.1746 257.544 28.8414 257.544 27.7588C257.544 26.6763 258.417 25.9685 259.71 25.9685C261.166 25.9685 262.123 26.9262 262.083 28.3418H267.871C267.703 24.0115 264.415 21.3052 259.834 21.3052C255.213 21.3052 251.756 24.0533 251.756 28.2169C251.756 31.0065 253.297 33.2967 257.418 34.3793L261.082 35.3368C262.165 35.6282 262.623 36.1279 262.623 36.8356C262.623 37.8766 261.666 38.5429 260.042 38.5429C258.167 38.5429 257.169 37.6685 257.169 36.2112H251.381Z" fill="#252160"/>
<path d="M278.477 43.3312C281.018 43.3312 283.557 42.1653 284.848 40.4583L285.266 42.79H291.303V21.9717H284.89V32.7973C284.89 35.9199 283.975 37.6269 281.018 37.6269C278.727 37.6269 277.228 36.5861 277.228 32.714V21.9717H270.815V35.0455C270.815 40.0004 273.564 43.3312 278.477 43.3312Z" fill="#252160"/>
<path d="M301.472 42.7899V31.4232C301.472 27.9256 303.346 26.9263 305.178 26.9263C307.218 26.9263 308.551 28.1755 308.551 30.7569V42.7899H314.88V31.4232C314.88 27.884 316.712 26.8848 318.544 26.8848C320.584 26.8848 321.959 28.1337 321.959 30.7569V42.7899H328.206V29.1747C328.206 24.4282 325.707 21.2638 320.334 21.2638C317.337 21.2638 314.88 22.7209 313.797 24.9694C312.549 22.7209 310.383 21.2638 306.926 21.2638C304.637 21.2638 302.513 22.3046 301.264 23.9701L301.015 21.9716H295.017V42.7899H301.472Z" fill="#252160"/>
<path d="M4 30.5C4 13.6553 17.6566 0 34.5029 0H74.538C91.3844 0 105.041 13.6553 105.041 30.5V61H34.5029C17.6566 61 4 47.3448 4 30.5Z" fill="black"/>
<path d="M74.538 11.4375H34.5029C23.974 11.4375 15.4386 19.9721 15.4386 30.5C15.4386 41.0279 23.974 49.5625 34.5029 49.5625H74.538C85.0669 49.5625 93.6023 41.0279 93.6023 30.5C93.6023 19.9721 85.0669 11.4375 74.538 11.4375Z" fill="#A5B4FC"/>
<path d="M34.5029 40.0312C39.7674 40.0312 44.0351 35.764 44.0351 30.5C44.0351 25.236 39.7674 20.9688 34.5029 20.9688C29.2385 20.9688 24.9708 25.236 24.9708 30.5C24.9708 35.764 29.2385 40.0312 34.5029 40.0312Z" fill="black"/>
<path d="M30.6901 28.5938C31.743 28.5938 32.5965 27.7403 32.5965 26.6875C32.5965 25.6347 31.743 24.7812 30.6901 24.7812C29.6372 24.7812 28.7836 25.6347 28.7836 26.6875C28.7836 27.7403 29.6372 28.5938 30.6901 28.5938Z" fill="white"/>
<path d="M76.4445 40.0312C81.7089 40.0312 85.9766 35.764 85.9766 30.5C85.9766 25.236 81.7089 20.9688 76.4445 20.9688C71.18 20.9688 66.9123 25.236 66.9123 30.5C66.9123 35.764 71.18 40.0312 76.4445 40.0312Z" fill="black"/>
<path d="M72.6316 28.5938C73.6845 28.5938 74.538 27.7403 74.538 26.6875C74.538 25.6347 73.6845 24.7812 72.6316 24.7812C71.5787 24.7812 70.7252 25.6347 70.7252 26.6875C70.7252 27.7403 71.5787 28.5938 72.6316 28.5938Z" fill="white"/>
</g>
<defs>
<filter id="filter0_d_1:379" x="0" y="0" width="334" height="69" filterUnits="userSpaceOnUse" color-interpolation-filters="sRGB">
<feFlood flood-opacity="0" result="BackgroundImageFix"/>
<feColorMatrix in="SourceAlpha" type="matrix" values="0 0 0 0 0 0 0 0 0 0 0 0 0 0 0 0 0 0 127 0" result="hardAlpha"/>
<feOffset dy="4"/>
<feGaussianBlur stdDeviation="2"/>
<feComposite in2="hardAlpha" operator="out"/>
<feColorMatrix type="matrix" values="0 0 0 0 0 0 0 0 0 0 0 0 0 0 0 0 0 0 0.25 0"/>
<feBlend mode="normal" in2="BackgroundImageFix" result="effect1_dropShadow_1:379"/>
<feBlend mode="normal" in="SourceGraphic" in2="effect1_dropShadow_1:379" result="shape"/>
</filter>
</defs>
</svg>
