<svg width="57" height="57" viewBox="0 0 57 57" fill="none" xmlns="http://www.w3.org/2000/svg">
<g clip-path="url(#clip0_74:743)">
<path d="M45.4986 16.2626C47.8648 18.7759 49.1353 21.5946 49.1353 26.164C49.1353 34.2045 43.4908 41.4111 35.2826 44.9742L33.2311 41.8086C40.8925 37.6642 42.3904 32.2863 42.9877 28.8955C41.754 29.5341 40.139 29.7569 38.5562 29.6099C34.4119 29.2263 31.1451 25.824 31.1451 21.5946C31.1451 19.4622 31.9922 17.417 33.5001 15.9091C35.008 14.4012 37.0532 13.5541 39.1857 13.5541C41.6507 13.5541 44.0077 14.6798 45.4986 16.2626V16.2626ZM22.5257 16.2626C24.8919 18.7759 26.1623 21.5946 26.1623 26.164C26.1623 34.2045 20.5178 41.4111 12.3096 44.9742L10.2581 41.8086C17.9196 37.6642 19.4174 32.2863 20.0147 28.8955C18.7811 29.5341 17.1661 29.7569 15.5832 29.6099C11.4389 29.2263 8.17214 25.824 8.17214 21.5946C8.17214 19.4622 9.01927 17.417 10.5272 15.9091C12.0351 14.4012 14.0802 13.5541 16.2127 13.5541C18.6777 13.5541 21.0347 14.6798 22.5257 16.2626V16.2626Z" fill="#32B5FF"/>
</g>
<defs>
<clipPath id="clip0_74:743">
<rect width="55.1351" height="55.1351" fill="white" transform="translate(56.0271 56.0541) rotate(-180)"/>
</clipPath>
</defs>
</svg>
